# xmcd
#
# Track frame offsets:
#	150
#	21487
#	38031
#	52318
#	77051
#	88009
#	116393
#	131669
#	148916
#	169291
#	195386
#	211252
#	225216
#
# Disc length: 3256 seconds
#
# Revision: 0
# Processed by: cddbd v1.5.2PL0 Copyright (c) Steve Scherf et al.
# Submitted via: EasyCDDAExtractor 12.0.0.1
#
DISCID=b20cb60d
DTITLE=Blue Collar Way - Night Shift
DYEAR=2001
DGENRE=Blues
TTITLE0=Coffee Bean
TTITLE1=It's All Mine
TTITLE2=Piece Of The Pie
TTITLE3=Headstone
TTITLE4=Train to Memphis
TTITLE5=Hey Jesse
TTITLE6=Lady In Waiting
TTITLE7=You're Push'n It
TTITLE8=Slow Dancing
TTITLE9=Border Blues
TTITLE10=Travel Man
TTITLE11=T.G.I.F.
TTITLE12=Blue Collar Way
EXTD=
EXTT0=
EXTT1=
EXTT2=
EXTT3=
EXTT4=
EXTT5=
EXTT6=
EXTT7=
EXTT8=
EXTT9=
EXTT10=
EXTT11=
EXTT12=
PLAYORDER=
